<svg width="46" height="46" viewBox="0 0 46 46" fill="none" xmlns="http://www.w3.org/2000/svg">
<g id="eos-icons:ai">
<path id="Vector" d="M39.8589 21.3741V17.5923H36.0771V13.8105C36.0741 12.8085 35.6747 11.8483 34.9661 11.1397C34.2576 10.4311 33.2974 10.0317 32.2953 10.0287H28.5135V6.24695H24.7317V10.0287H20.9499V6.24695H17.1681V10.0287H13.3863C12.3843 10.0317 11.4241 10.4311 10.7155 11.1397C10.0069 11.8483 9.60754 12.8085 9.60455 13.8105V17.5923H5.82275V21.3741H9.60455V25.1559H5.82275V28.9377H9.60455V32.7195C9.60754 33.7216 10.0069 34.6817 10.7155 35.3903C11.4241 36.0989 12.3843 36.4983 13.3863 36.5013H17.1681V40.2831H20.9499V36.5013H24.7317V40.2831H28.5135V36.5013H32.2953C33.2974 36.4983 34.2576 36.0989 34.9661 35.3903C35.6747 34.6817 36.0741 33.7216 36.0771 32.7195V28.9377H39.8589V25.1559H36.0771V21.3741H39.8589ZM32.2953 32.7195H13.3863V13.8105H32.2953V32.7195Z" fill="url(#paint0_linear_1_468)"/>
<path id="Vector_2" d="M21.6325 15.7015H19.0893L15.2886 30.8287H17.2305L18.1079 27.2833H22.4872L23.3419 30.8287H25.35L21.6325 15.7015ZM18.3632 25.7687L20.2881 17.4979H20.3751L22.2338 25.7687H18.3632ZM27.084 15.7015H28.9749V30.8287H27.084V15.7015Z" fill="url(#paint1_linear_1_468)"/>
</g>
<defs>
<linearGradient id="paint0_linear_1_468" x1="22.8408" y1="6.24695" x2="22.8408" y2="40.2831" gradientUnits="userSpaceOnUse">
<stop stop-color="#FFB912"/>
<stop offset="1" stop-color="#49D043"/>
</linearGradient>
<linearGradient id="paint1_linear_1_468" x1="22.1317" y1="15.7015" x2="22.1317" y2="30.8287" gradientUnits="userSpaceOnUse">
<stop stop-color="#FFB912"/>
<stop offset="1" stop-color="#49D043"/>
</linearGradient>
</defs>
</svg>
