<svg width="39" height="38" viewBox="0 0 39 38" fill="none" xmlns="http://www.w3.org/2000/svg">
<g id="clarity:language-solid" clip-path="url(#clip0_1_461)">
<path id="Vector" d="M11.8823 18.0732L10.8047 21.3508H12.9599L11.8823 18.0732Z" fill="#090C09"/>
<path id="Vector_2" d="M32.6798 3.79944H15.4381V9.08581H19.7486V11.2004H5.73966C3.90773 11.2004 2.50684 12.5748 2.50684 14.3722V26.0022C2.50684 27.7996 3.90773 29.174 5.73966 29.174H6.81727V34.5661L13.6062 29.174H20.8262V21.7731H32.6798C34.5118 21.7731 35.9127 20.3987 35.9127 18.6013V6.97126C35.9127 5.1739 34.5118 3.79944 32.6798 3.79944ZM14.145 24.8392L13.6062 23.1476H10.2656L9.61904 24.8392H7.03279L10.5889 15.4295H13.1751L16.7313 24.8392H14.145ZM30.5246 16.4867V18.6013C29.1237 18.6013 27.6151 18.1784 26.322 17.544C25.0288 18.1784 23.5202 18.4956 22.0115 18.6013L21.9038 16.4867C22.6581 16.4867 23.4124 16.381 24.1667 16.1696C23.1969 15.218 22.5503 14.055 22.2271 12.7863H24.49C24.8133 13.7378 25.4599 14.4779 26.2142 15.1123C27.3996 14.1607 28.1539 12.7863 28.2617 11.2004H21.796V9.08581H25.0288V6.97126H27.184V9.08581H30.7402L30.8479 10.1431C30.9557 12.3634 30.0936 14.5836 28.4772 16.1696C29.2315 16.381 29.8781 16.4867 30.5246 16.4867Z" fill="url(#paint0_linear_1_461)"/>
</g>
<defs>
<linearGradient id="paint0_linear_1_461" x1="19.2098" y1="3.79944" x2="19.2098" y2="34.5661" gradientUnits="userSpaceOnUse">
<stop stop-color="#FFB912"/>
<stop offset="1" stop-color="#49D043"/>
</linearGradient>
<clipPath id="clip0_1_461">
<rect width="38.7939" height="38.0619" fill="white" transform="translate(0.0283203 0.629883)"/>
</clipPath>
</defs>
</svg>
