<svg width="31" height="28" viewBox="0 0 31 28" fill="none" xmlns="http://www.w3.org/2000/svg">
<g id="fa6-solid:diagram-project" clip-path="url(#clip0_1_416)">
<path id="Vector" d="M0.358887 4.58336C0.358887 3.18314 1.48422 2.04712 2.87126 2.04712H7.896C9.28304 2.04712 10.4084 3.18314 10.4084 4.58336V5.42877H20.4579V4.58336C20.4579 3.18314 21.5832 2.04712 22.9702 2.04712H27.995C29.382 2.04712 30.5073 3.18314 30.5073 4.58336V9.65584C30.5073 11.0561 29.382 12.1921 27.995 12.1921H22.9702C21.5832 12.1921 20.4579 11.0561 20.4579 9.65584V8.81043H10.4084V9.65584C10.4084 9.74567 10.4031 9.83549 10.3927 9.92003L14.5957 15.5737H19.6204C21.0074 15.5737 22.1328 16.7098 22.1328 18.11V23.1825C22.1328 24.5827 21.0074 25.7187 19.6204 25.7187H14.5957C13.2086 25.7187 12.0833 24.5827 12.0833 23.1825V18.11C12.0833 18.0202 12.0885 17.9303 12.099 17.8458L7.896 12.1921H2.87126C1.48422 12.1921 0.358887 11.0561 0.358887 9.65584V4.58336Z" fill="url(#paint0_linear_1_416)"/>
</g>
<defs>
<linearGradient id="paint0_linear_1_416" x1="15.4331" y1="2.04712" x2="15.4331" y2="25.7187" gradientUnits="userSpaceOnUse">
<stop stop-color="#FFB912"/>
<stop offset="1" stop-color="#49D043"/>
</linearGradient>
<clipPath id="clip0_1_416">
<rect width="30.1485" height="27.0532" fill="white" transform="translate(0.358887 0.358521)"/>
</clipPath>
</defs>
</svg>
