<svg width="31" height="31" viewBox="0 0 31 31" fill="none" xmlns="http://www.w3.org/2000/svg">
<g id="material-symbols:live-tv">
<path id="Vector" d="M12.3837 20.1391L21.0471 14.4107L12.3837 8.68225V20.1391ZM10.5273 27.1405V24.5945H5.57681C4.89612 24.5945 4.31361 24.3455 3.82929 23.8473C3.34496 23.3491 3.10239 22.7496 3.10156 22.0486V6.77277C3.10156 6.07263 3.34414 5.47348 3.82929 4.97532C4.31443 4.47716 4.89694 4.22766 5.57681 4.22681H25.3788C26.0595 4.22681 26.6424 4.47631 27.1275 4.97532C27.6127 5.47433 27.8549 6.07348 27.854 6.77277V22.0486C27.854 22.7487 27.6119 23.3483 27.1275 23.8473C26.6432 24.3463 26.0603 24.5954 25.3788 24.5945H20.4283V27.1405H10.5273Z" fill="url(#paint0_linear_1_446)"/>
</g>
<defs>
<linearGradient id="paint0_linear_1_446" x1="15.4778" y1="4.22681" x2="15.4778" y2="27.1405" gradientUnits="userSpaceOnUse">
<stop stop-color="#FFB912"/>
<stop offset="1" stop-color="#49D043"/>
</linearGradient>
</defs>
</svg>
